<?xml version="1.0" encoding="utf-8"?>
<!-- Generator: Adobe Illustrator 27.5.0, SVG Export Plug-In . SVG Version: 6.00 Build 0)  -->
<svg version="1.1" id="Capa_1" xmlns="http://www.w3.org/2000/svg" xmlns:xlink="http://www.w3.org/1999/xlink" x="0px" y="0px"
	 viewBox="0 0 1920 1080" style="enable-background:new 0 0 1920 1080;" xml:space="preserve">
<style type="text/css">
	.st0{fill:#FFFFFF;}
</style>
<g>
	<g>
		<path class="st0" d="M978.3,809.3c-5.5,0-11.1-1.1-16.4-3.3l-225.5-93.5c-8.2-3.4-15.4-9-20.7-16.1l-3.9-5.3
			c-2.6-3.5-4.5-7.2-5.6-11c-5.7-19.4-0.2-40.2,14.5-54.2l0.8-0.8l10.9-5.4l0.9-0.2c10.7-2.4,21.7-1.7,32,2.1l211.9,86.1
			c10.8,4.4,23,1.8,31.1-6.7l189.4-198.5c-4.4-17.2-5.5-34.9-3.2-52.6l0.2-1.3l-174.2,174.2c-12.4,12.4-30.9,16.3-47.3,10.1
			l-222.3-85.2l-3.9-4c-26-26.7-26.3-68.9-0.7-96l4.2-4.3l212-165.3l0.4-0.2c15.5-9.1,34.9-9.4,50.6-0.6l0.3,0.2l180.3,59.4
			c8,2.6,13.9,9.1,15.7,17.3c1.9,8.2-0.7,16.6-6.7,22.4l-170.8,163.5c-12.8,12.2-31.7,16.1-48.3,9.9l-197.6-74.5
			c-3.9-1.5-5.8-5.8-4.4-9.7c1.5-3.9,5.8-5.8,9.7-4.4l197.6,74.5c11.2,4.2,23.9,1.6,32.5-6.6l170.8-163.5c3.2-3.1,2.8-6.7,2.5-8.2
			s-1.5-4.9-5.7-6.3l-181.6-59.8l-1.6-0.9c-10.9-6.1-24.4-6-35.3,0.2L760.2,454.8l-3,3.1c-20.1,21.2-19.8,54.2,0.5,75.2l1.6,1.7
			l219.2,84.1c10.8,4.1,23.1,1.5,31.2-6.6L1214.9,407l-5.6,44.8c-2.1,17.1-0.8,34.2,3.9,50.7l1.2,4.1l-195.3,204.7
			c-12.3,12.9-31,17-47.6,10.2l-211.7-86c-7.1-2.6-14.8-3.2-22.4-1.7l-7.2,3.5c-10,10.1-13.6,24.7-9.6,38.3c0.6,2.1,1.7,4.2,3.2,6.3
			l3.9,5.3c3.7,5,8.7,8.8,14.4,11.2l225.5,93.5c10.5,4.4,22.4,1.9,30.3-6.3l205.1-213.3c2.9-3,7.6-3.1,10.6-0.2
			c3,2.9,3.1,7.6,0.2,10.6l-205.1,213.3C1000.6,804.7,989.6,809.3,978.3,809.3z"/>
	</g>
</g>
</svg>
